<svg width="512" height="512" viewBox="0 0 512 512" fill="none" xmlns="http://www.w3.org/2000/svg">
<g id="llama2 1" clip-path="url(#clip0)">
<path id="Vector" d="M371.401 474.888C374.89 471.368 376.854 466.375 376.331 461.058C375.819 455.752 372.936 451.239 368.842 448.461C372.331 444.941 374.274 439.958 373.762 434.652C373.24 429.335 370.357 424.823 366.262 422.044C369.751 418.534 371.704 413.552 371.182 408.235C370.66 402.929 367.787 398.416 363.682 395.638C367.171 392.118 369.124 387.135 368.602 381.829C368.08 376.512 365.207 372 361.113 369.221C364.591 365.711 366.545 360.729 366.022 355.412C365.51 350.106 362.627 345.593 358.533 342.815C362.011 339.295 363.965 334.312 363.453 329.006C362.931 323.689 360.048 319.177 355.953 316.398C359.442 312.888 361.385 307.906 360.873 302.589C360.351 297.283 357.468 292.77 353.373 289.992C356.862 286.472 358.805 281.489 358.293 276.183C357.938 272.569 356.496 269.331 354.324 266.761C353.3 265.539 352.11 264.473 350.793 263.586C354.282 260.066 356.235 255.083 355.713 249.767C354.794 240.293 346.354 233.368 336.89 234.287C329.547 235.008 323.75 240.241 321.932 246.968H184.052C182.318 240.116 176.458 234.747 169.021 234.026C159.547 233.096 151.118 240.032 150.198 249.506C149.686 254.739 151.577 259.659 154.972 263.169C150.961 265.958 148.151 270.418 147.65 275.651C147.138 280.884 149.018 285.804 152.413 289.314C148.412 292.103 145.603 296.563 145.091 301.796C144.579 307.029 146.47 311.949 149.865 315.459C145.854 318.248 143.055 322.708 142.543 327.941C142.031 333.185 143.922 338.094 147.317 341.604C143.306 344.393 140.496 348.853 139.995 354.086C139.483 359.33 141.363 364.239 144.758 367.749C140.757 370.538 137.948 374.998 137.436 380.231C136.924 385.475 138.815 390.394 142.21 393.894C138.199 396.683 135.4 401.143 134.888 406.387C134.376 411.62 136.267 416.54 139.662 420.039C135.651 422.828 132.841 427.288 132.329 432.532C131.828 437.765 133.708 442.685 137.103 446.195C133.102 448.974 130.293 453.434 129.781 458.677C129.269 463.921 131.17 468.83 134.565 472.34C134.147 472.632 133.729 472.935 133.322 473.28C131.588 474.732 130.199 476.487 129.186 478.43C140.258 484.76 151.842 490.286 163.875 494.923C192.461 505.952 223.525 512 256 512C299.84 512 341.099 500.98 377.167 481.552C375.872 478.899 373.898 476.58 371.401 474.888Z" fill="#DBCC9E"/>
<g id="Group">
<path id="Vector_2" d="M371.401 474.888C374.89 471.368 376.854 466.375 376.331 461.058C375.819 455.752 372.936 451.239 368.842 448.461C372.331 444.941 374.274 439.958 373.762 434.652C373.24 429.335 370.357 424.823 366.262 422.044C369.751 418.534 371.704 413.552 371.182 408.235C370.66 402.929 367.787 398.416 363.682 395.638C367.171 392.118 369.124 387.135 368.602 381.829C368.08 376.512 365.207 372 361.113 369.221C364.591 365.711 366.545 360.729 366.022 355.412C365.51 350.106 362.627 345.593 358.533 342.815C362.011 339.295 363.965 334.312 363.453 329.006C362.931 323.689 360.048 319.177 355.953 316.398C359.442 312.888 361.385 307.906 360.873 302.589C360.351 297.283 357.468 292.77 353.373 289.992C356.862 286.472 358.805 281.489 358.293 276.183C357.938 272.569 356.496 269.331 354.324 266.761C354.324 266.782 354.314 266.792 354.314 266.813H216.434C214.7 259.961 208.84 254.592 201.403 253.871C191.929 252.941 183.5 259.877 182.58 269.351C182.068 274.584 183.959 279.504 187.354 283.014C183.343 285.803 180.533 290.263 180.032 295.496C179.52 300.729 181.4 305.649 184.795 309.159C180.794 311.948 177.985 316.408 177.473 321.641C176.961 326.874 178.852 331.794 182.247 335.304C178.236 338.093 175.437 342.553 174.925 347.786C174.413 353.03 176.304 357.939 179.699 361.449C175.688 364.238 172.878 368.698 172.377 373.931C171.865 379.175 173.745 384.084 177.14 387.594C173.139 390.383 170.33 394.843 169.818 400.076C169.306 405.32 171.197 410.239 174.592 413.739C170.581 416.528 167.782 420.988 167.27 426.232C166.758 431.465 168.649 436.385 172.044 439.884C168.033 442.673 165.223 447.133 164.711 452.377C164.21 457.61 166.09 462.53 169.485 466.04C165.484 468.818 162.675 473.279 162.163 478.522C161.651 483.766 163.552 488.675 166.947 492.185C166.529 492.477 166.111 492.78 165.704 493.125C165.046 493.679 164.43 494.284 163.876 494.922C192.461 505.952 223.525 512 256 512C299.84 512 341.099 500.98 377.167 481.552C375.872 478.899 373.898 476.58 371.401 474.888Z" fill="#EADDB0"/>
<path id="Vector_3" d="M355.984 155.977C356.823 155.678 357.636 155.347 358.457 154.999C404.044 136.543 426.933 84.989 409.645 38.613L406.731 30.789L398.479 8.635C395.641 1.017 386.623 -2.32 379.584 1.747C341.733 23.617 324.049 70.243 339.809 112.589L355.984 155.977Z" fill="#EADDB0"/>
</g>
<path id="Vector_4" d="M363.252 152.145C363.744 151.97 364.221 151.775 364.703 151.572C391.441 140.747 404.867 110.509 394.726 83.307L393.017 78.718L387.45 63.772C386.207 60.435 382.316 58.91 379.157 60.554C355.544 72.844 344.24 101.104 353.765 126.699L363.252 152.145Z" fill="#4D4445"/>
<path id="Ear-1" d="M140.427 151.978C139.588 151.679 138.775 151.348 137.954 151C92.3673 132.543 69.4783 80.9886 86.7673 34.6126L89.6813 26.7886L97.9333 4.63457C100.771 -2.98343 109.789 -6.32043 116.828 -2.25343C154.679 19.6166 172.363 66.2436 156.603 108.59L140.427 151.978Z" fill="#EADDB0"/>
<path id="ear-1" d="M142.85 152.145C142.358 151.97 141.881 151.775 141.399 151.572C114.661 140.747 101.235 110.509 111.376 83.307L113.085 78.718L118.652 63.772C119.895 60.435 123.786 58.91 126.945 60.554C150.558 72.844 161.862 101.104 152.337 126.699L142.85 152.145Z" fill="#4D4445"/>
<path id="face" d="M405.036 175.261C403.438 172.66 401.171 170.508 398.466 169.067C401.495 165.892 403.24 161.63 403.24 157.17C403.24 155.415 402.968 153.629 402.394 151.864C401.391 148.772 399.605 146.161 397.318 144.176C395.03 142.181 392.252 140.823 389.275 140.249C390.466 137.847 391.082 135.204 391.082 132.53C391.082 129.198 390.121 125.824 388.105 122.858C384.773 117.959 379.362 115.316 373.847 115.316C373.429 115.316 373.001 115.326 372.583 115.358C372.813 114.23 372.928 113.081 372.928 111.932C372.928 107.19 370.996 102.479 367.193 99.074C363.903 96.128 359.787 94.676 355.693 94.676C353.97 94.676 352.256 94.927 350.596 95.439C350.533 92.525 349.719 89.673 348.256 87.156C346.794 84.628 344.673 82.456 341.968 80.889C339.252 79.333 336.296 78.591 333.382 78.591C330.52 78.591 327.689 79.312 325.161 80.67C324.534 77.86 323.208 75.238 321.317 73.066C319.426 70.883 316.961 69.159 314.037 68.136C312.146 67.478 310.224 67.154 308.334 67.154C304.396 67.154 300.604 68.512 297.575 70.925C296.478 68.282 294.734 65.943 292.509 64.135C290.284 62.338 287.568 61.064 284.539 60.552C283.568 60.385 282.596 60.312 281.646 60.312C276.674 60.312 272.047 62.464 268.85 66.026C268.599 65.629 268.338 65.243 268.056 64.877C266.635 62.965 264.828 61.367 262.76 60.187C260.284 58.766 257.412 57.952 254.351 57.931H254.236C251.311 57.931 248.575 58.652 246.162 59.937C243.561 61.326 241.357 63.353 239.759 65.818C236.552 62.173 231.873 59.927 226.807 59.927C225.93 59.927 225.042 60 224.143 60.136C221.114 60.606 218.388 61.839 216.131 63.614C213.885 65.379 212.099 67.688 210.961 70.31C207.911 67.803 204.036 66.393 200.025 66.393C198.218 66.393 196.369 66.675 194.562 67.281C191.637 68.263 189.141 69.955 187.208 72.096C185.286 74.237 183.918 76.838 183.249 79.638C180.669 78.197 177.755 77.434 174.788 77.434C171.957 77.434 169.095 78.123 166.453 79.586C163.727 81.101 161.575 83.242 160.06 85.738C158.556 88.224 157.71 91.065 157.584 93.969C155.84 93.394 154.022 93.112 152.205 93.112C148.204 93.112 144.204 94.491 140.945 97.301C136.997 100.706 134.96 105.522 134.96 110.358C134.96 111.382 135.054 112.416 135.242 113.439C134.709 113.387 134.166 113.366 133.633 113.366C128.243 113.366 122.937 115.883 119.573 120.605C117.411 123.634 116.377 127.123 116.377 130.591C116.377 133.119 116.931 135.636 118.006 137.934C115.019 138.446 112.209 139.731 109.879 141.653C107.55 143.585 105.69 146.145 104.614 149.205C103.945 151.096 103.632 153.028 103.632 154.929C103.632 159.222 105.241 163.348 108.082 166.492C105.345 167.86 103.016 169.949 101.355 172.509C99.694 175.068 98.691 178.097 98.597 181.377C98.587 181.377 98.587 181.377 98.587 181.377C98.587 181.544 98.577 181.711 98.577 181.878C98.577 188.229 102.024 193.828 107.194 196.815C103.925 200.022 102.013 204.461 102.013 209.13C102.013 210.707 102.232 212.316 102.692 213.904C103.601 217.027 105.314 219.701 107.539 221.759C109.764 223.827 112.501 225.269 115.467 225.937C114.109 228.454 113.409 231.275 113.409 234.126C113.409 237.301 114.286 240.519 116.125 243.402C117.765 245.972 119.969 247.956 122.476 249.293C124.983 250.64 127.793 251.351 130.623 251.361C130.184 252.896 129.954 254.495 129.954 256.114C129.954 258.84 130.612 261.619 131.98 264.199C132.931 265.975 134.142 267.521 135.542 268.805C136.942 270.09 138.54 271.124 140.253 271.876C137.788 274.905 136.357 278.739 136.357 282.771C136.357 284.035 136.493 285.309 136.785 286.584C137.464 289.55 138.864 292.172 140.765 294.293C142.666 296.413 145.069 298.032 147.743 298.993C145.633 301.918 144.463 305.459 144.463 309.104C144.463 311.224 144.86 313.376 145.696 315.465C146.835 318.327 148.652 320.719 150.887 322.516C153.133 324.313 155.786 325.535 158.617 326.057C157.437 328.428 156.82 331.06 156.82 333.713C156.82 336.815 157.666 339.97 159.431 342.801C162.69 348.055 168.31 350.928 174.065 350.928H174.284C173.887 352.401 173.689 353.905 173.689 355.42C173.689 359.755 175.318 364.09 178.577 367.443C181.951 370.911 186.442 372.666 190.934 372.666C192.375 372.666 193.817 372.478 195.227 372.123V372.478C195.227 378.39 198.277 384.156 203.75 387.363C206.487 388.961 209.485 389.724 212.441 389.724C215.627 389.724 218.771 388.836 221.497 387.165C222.364 390.152 224.035 392.847 226.291 394.968C228.558 397.078 231.409 398.603 234.668 399.251C241.238 400.557 247.673 397.956 251.558 393.046C253.156 395.208 255.224 396.963 257.595 398.175C258.472 398.624 259.392 399.011 260.353 399.303C261.962 399.804 263.675 400.066 265.419 400.066C266.349 400.066 267.278 399.993 268.229 399.836C271.519 399.293 274.423 397.862 276.763 395.825C279.103 393.788 280.858 391.145 281.829 388.179C284.649 390.038 287.96 391.031 291.334 391.031C294.123 391.031 296.964 390.352 299.586 388.921C302.438 387.365 304.673 385.119 306.198 382.507C307.723 379.895 308.538 376.919 308.559 373.89C310.105 374.329 311.693 374.548 313.291 374.548C317.647 374.548 322.013 372.908 325.366 369.607C328.803 366.233 330.526 361.783 330.526 357.323C330.526 355.923 330.359 354.534 330.025 353.176C330.213 353.186 330.401 353.186 330.579 353.186C336.23 353.186 341.766 350.418 345.067 345.331C345.067 345.321 345.067 345.321 345.067 345.321C346.947 342.428 347.845 339.169 347.845 335.951C347.845 333.402 347.281 330.875 346.195 328.566C349.026 328.096 351.71 326.926 353.987 325.161C356.254 323.396 358.113 321.035 359.304 318.194C360.202 316.032 360.631 313.786 360.631 311.582C360.631 308.02 359.524 304.563 357.508 301.68C360.192 300.75 362.626 299.163 364.559 297.074C366.491 294.985 367.933 292.384 368.654 289.418C368.988 288.06 369.145 286.702 369.145 285.365C369.145 281.187 367.61 277.218 364.977 274.147C366.836 273.29 368.549 272.1 370.012 270.627C371.474 269.144 372.696 267.368 373.574 265.352C374.535 263.117 374.995 260.798 374.995 258.51C374.995 256.828 374.744 255.167 374.274 253.58C376.99 253.538 379.674 252.849 382.087 251.574C384.5 250.289 386.641 248.419 388.281 245.996C390.276 243.04 391.237 239.687 391.237 236.365C391.237 233.681 390.6 231.006 389.388 228.594C392.365 228.009 395.143 226.641 397.431 224.646C399.708 222.651 401.494 220.029 402.487 216.937C403.041 215.193 403.312 213.417 403.312 211.683C403.312 207.202 401.547 202.919 398.497 199.733C401.192 198.281 403.469 196.119 405.057 193.508C406.645 190.907 407.564 187.836 407.564 184.556V184.211C407.553 180.932 406.623 177.861 405.036 175.261Z" fill="#EADDB0"/>
<path id="Vector_5" d="M238.661 101.779C240.604 100.442 242.192 98.771 243.403 96.911C244.604 95.031 245.419 92.963 245.826 90.811C248.061 91.845 250.526 92.409 253.054 92.409C254.642 92.409 256.25 92.179 257.848 91.72C265.39 89.537 270.289 82.653 270.289 75.174C270.289 73.586 270.07 71.967 269.6 70.369C269.37 69.544 269.078 68.76 268.733 68.008C268.629 67.141 268.461 66.264 268.211 65.386C268.159 65.208 268.117 65.041 268.054 64.874C266.633 62.962 264.826 61.364 262.758 60.184C260.282 58.763 257.41 57.949 254.349 57.928H254.234C248.165 57.928 242.828 61.072 239.757 65.814C236.55 62.169 231.871 59.923 226.805 59.923C225.928 59.923 225.04 59.996 224.141 60.132C221.112 60.602 218.386 61.835 216.129 63.61C213.883 65.375 212.097 67.684 210.959 70.306C207.909 67.799 204.034 66.389 200.023 66.389C198.216 66.389 196.367 66.671 194.56 67.277C191.635 68.259 189.139 69.951 187.206 72.092C185.284 74.233 183.916 76.834 183.247 79.634C180.667 78.193 177.753 77.43 174.786 77.43C171.955 77.43 169.093 78.119 166.451 79.582C163.725 81.097 161.573 83.238 160.058 85.734C158.554 88.22 157.708 91.061 157.582 93.965C155.838 93.39 154.02 93.108 152.203 93.108C148.202 93.108 144.202 94.487 140.943 97.297C136.995 100.702 134.958 105.518 134.958 110.354C134.958 111.378 135.052 112.412 135.24 113.435C134.707 113.383 134.164 113.362 133.631 113.362C128.241 113.362 122.935 115.879 119.571 120.601C117.409 123.63 116.375 127.119 116.375 130.587C116.375 133.115 116.929 135.632 118.004 137.93C115.017 138.442 112.207 139.727 109.877 141.649C107.548 143.581 105.688 146.141 104.612 149.201C103.943 151.092 103.63 153.024 103.63 154.925C103.63 159.218 105.239 163.344 108.08 166.488C105.343 167.856 103.014 169.945 101.353 172.505C99.692 175.064 98.689 178.093 98.595 181.373C98.585 181.373 98.585 181.373 98.585 181.373C98.585 181.54 98.575 181.707 98.575 181.874C98.575 188.225 102.022 193.824 107.192 196.811C103.923 200.018 102.011 204.457 102.011 209.126C102.011 210.703 102.23 212.312 102.69 213.9C103.599 217.023 105.312 219.697 107.537 221.755C109.762 223.823 112.499 225.265 115.465 225.933C114.107 228.45 113.407 231.271 113.407 234.122C113.407 237.297 114.284 240.515 116.123 243.398C117.763 245.968 119.967 247.952 122.474 249.289C124.981 250.636 127.791 251.347 130.621 251.357C130.182 252.892 129.952 254.491 129.952 256.11C129.952 258.836 130.61 261.615 131.978 264.195C132.929 265.971 134.14 267.517 135.54 268.801C136.94 270.086 138.538 271.12 140.251 271.872C137.786 274.901 136.355 278.735 136.355 282.767C136.355 284.031 136.491 285.305 136.783 286.58C137.462 289.547 138.862 292.168 140.763 294.289C142.664 296.409 145.067 298.028 147.741 298.989C145.631 301.914 144.461 305.455 144.461 309.1C144.461 311.22 144.858 313.372 145.694 315.461C146.833 318.323 148.65 320.715 150.885 322.512C153.131 324.309 155.784 325.531 158.615 326.053C157.435 328.424 156.818 331.056 156.818 333.709C156.818 336.811 157.664 339.966 159.429 342.797C162.688 348.051 168.308 350.924 174.063 350.924H174.282C173.885 352.397 173.687 353.901 173.687 355.416C173.687 359.751 175.316 364.086 178.575 367.439C181.949 370.907 186.44 372.662 190.932 372.662C192.373 372.662 193.815 372.474 195.225 372.119V372.474C195.225 378.386 198.275 384.152 203.748 387.359C206.485 388.957 209.483 389.72 212.439 389.72C215.625 389.72 218.769 388.832 221.495 387.161C222.362 390.148 224.033 392.843 226.289 394.964C228.556 397.074 231.407 398.599 234.666 399.247C241.236 400.553 247.671 397.952 251.556 393.042C253.154 395.204 255.222 396.959 257.593 398.171C258.47 398.62 259.39 399.007 260.351 399.299C262.043 396.552 262.9 393.429 262.9 390.285C262.9 386.253 261.5 382.2 258.638 378.931C258.304 378.555 257.959 378.2 257.604 377.855C258.722 375.515 259.296 372.967 259.296 370.397C259.296 366.553 258.022 362.688 255.4 359.492C251.984 355.324 247.054 353.173 242.061 353.173H241.675C241.957 351.93 242.093 350.656 242.093 349.381C242.093 345.537 240.819 341.672 238.197 338.466C234.792 334.309 229.851 332.157 224.869 332.157H224.483C224.765 330.914 224.901 329.64 224.901 328.365C224.901 324.521 223.627 320.656 221.005 317.45C217.589 313.294 212.659 311.141 207.666 311.141H207.28C207.562 309.888 207.698 308.613 207.698 307.339C207.698 303.495 206.424 299.641 203.802 296.434C202.267 294.554 200.407 293.081 198.381 292.036C196.344 290.991 194.14 290.365 191.894 290.177C192.343 288.631 192.583 287.022 192.583 285.372C192.583 284.286 192.479 283.178 192.27 282.071C191.758 279.47 190.693 277.12 189.22 275.125C187.747 273.119 185.857 271.48 183.705 270.278C186.598 267.165 188.332 263.018 188.332 258.548C188.332 257.859 188.29 257.159 188.207 256.459C187.894 253.848 187.006 251.445 185.7 249.356C184.384 247.277 182.65 245.512 180.613 244.165C184.039 241.01 186.18 236.477 186.18 231.495C186.18 231.286 186.18 231.077 186.17 230.868C186.076 228.278 185.428 225.833 184.321 223.661C183.214 221.488 181.668 219.587 179.798 218.073C181.71 216.621 183.308 214.783 184.478 212.662C185.658 210.542 186.39 208.129 186.578 205.549C186.609 205.142 186.62 204.734 186.62 204.327C186.62 199.7 184.782 195.438 181.732 192.315C183.758 191.114 185.545 189.505 186.955 187.573C188.355 185.641 189.378 183.384 189.88 180.888C190.11 179.739 190.225 178.59 190.225 177.462C190.225 173.754 189.024 170.223 186.924 167.34C189.065 166.463 191.029 165.146 192.679 163.475C194.319 161.804 195.646 159.767 196.523 157.427C197.265 155.442 197.62 153.395 197.62 151.39C197.62 148.737 197.004 146.136 195.844 143.795C198.069 143.295 200.189 142.374 202.08 141.037C203.96 139.7 205.611 137.966 206.874 135.867C208.556 133.089 209.35 130.028 209.35 126.999C209.35 125.484 209.152 123.991 208.765 122.539C211.021 122.487 213.257 122.006 215.346 121.087C217.435 120.168 219.367 118.81 221.018 117.034C224.11 113.712 225.635 109.503 225.635 105.304C225.635 105.032 225.625 104.761 225.614 104.489C226.7 104.698 227.808 104.802 228.915 104.802C232.279 104.797 235.673 103.826 238.661 101.779Z" fill="#DBCC9E"/>
<path id="Vector_6" d="M253.051 382.596C272.694 382.596 288.618 366.672 288.618 347.029C288.618 327.386 272.694 311.462 253.051 311.462C233.408 311.462 217.484 327.386 217.484 347.029C217.484 366.672 233.408 382.596 253.051 382.596Z" fill="#BCAC79"/>
<path id="Vector_7" d="M329.825 290.007C329.825 325.49 304.453 355.207 270.411 362.864C266.181 363.815 262.076 361.872 259.287 358.153C258.786 357.474 258.316 356.743 257.908 355.949C256.989 354.173 256.32 352.126 255.986 349.901C255.004 343.132 253.845 336.583 253.051 336.583C252.268 336.583 251.098 343.132 250.116 349.901C249.792 352.126 249.124 354.173 248.194 355.949C247.787 356.743 247.317 357.474 246.815 358.153C244.026 361.872 239.921 363.814 235.701 362.864C201.649 355.208 176.277 325.49 176.277 290.007C176.277 277.138 179.62 265.032 185.49 254.461C191.245 244.11 195.434 232.526 197.941 220.221C205.817 181.562 227.512 153.788 253.051 153.788C278.601 153.788 300.296 181.562 308.161 220.221C310.668 232.526 314.857 244.11 320.612 254.461C326.493 265.031 329.825 277.138 329.825 290.007Z" fill="#DDCE93"/>
<path id="Vector_8" d="M277.88 308.662C277.88 314.344 273.441 321.416 266.703 325.855C261.982 328.968 259.287 334.368 259.287 340.019V358.152C258.786 357.473 258.316 356.742 257.908 355.948C256.989 354.172 256.32 352.125 255.986 349.9C255.977 349.832 255.966 349.764 255.957 349.697C255.465 346.372 250.638 346.372 250.146 349.697C250.136 349.765 250.126 349.833 250.117 349.9C249.793 352.125 249.125 354.172 248.195 355.948C247.788 356.742 247.318 357.473 246.816 358.152V340.019C246.816 334.368 244.121 328.968 239.4 325.855C232.673 321.426 228.223 314.344 228.223 308.662C228.223 299.658 239.337 313.206 253.052 313.206C266.766 313.206 277.88 299.658 277.88 308.662Z" fill="#4D4445"/>
<path id="Vector_9" d="M380.708 217.06C380.708 218.926 380.453 220.743 379.99 222.466C377.615 231.299 369.562 237.788 359.981 237.788C348.533 237.788 339.254 228.508 339.254 217.061C339.254 207.478 345.743 199.427 354.576 197.052C356.298 196.589 358.116 196.334 359.981 196.334C371.429 196.333 380.708 205.613 380.708 217.06Z" fill="#0F0F0E"/>
<path id="Vector_10" d="M380.708 217.06C380.708 218.926 380.453 220.743 379.99 222.466C377.551 223.598 374.808 224.235 371.939 224.235C361.368 224.235 352.806 215.673 352.806 205.102C352.806 202.232 353.444 199.49 354.575 197.051C356.297 196.588 358.115 196.333 359.981 196.333C371.429 196.333 380.708 205.613 380.708 217.06Z" fill="#E6E6E6"/>
<path id="Vector_11" d="M166.851 217.06C166.851 218.926 166.596 220.743 166.133 222.466C163.758 231.299 155.705 237.788 146.124 237.788C134.676 237.788 125.397 228.508 125.397 217.061C125.397 207.478 131.886 199.427 140.719 197.052C142.441 196.589 144.259 196.334 146.125 196.334C157.572 196.333 166.851 205.613 166.851 217.06Z" fill="#0F0F0E"/>
<path id="Vector_12" d="M166.851 217.06C166.851 218.926 166.596 220.743 166.133 222.466C163.694 223.598 160.951 224.235 158.082 224.235C147.511 224.235 138.949 215.673 138.949 205.102C138.949 202.232 139.587 199.49 140.718 197.051C142.44 196.588 144.258 196.333 146.124 196.333C157.572 196.333 166.851 205.613 166.851 217.06Z" fill="#E6E6E6"/>
<path id="Vector_13" d="M205.003 290.005C205.003 290.005 214.926 256.914 261.931 256.914C261.931 256.914 246.296 251.022 229.814 249.199C221.144 248.24 215.165 240.098 216.781 231.525C217.477 227.838 218.07 224.064 218.56 220.219C223.49 181.56 237.059 153.786 253.051 153.786C227.501 153.786 205.806 181.56 197.941 220.219C195.434 232.524 191.245 244.108 185.49 254.459C179.62 265.03 176.277 277.136 176.277 290.005C176.277 325.488 201.649 355.205 235.691 362.862C237.592 363.29 239.462 363.134 241.206 362.486C220.39 354.287 205.003 324.935 205.003 290.005Z" fill="#CCBB87"/>
<path id="Vector_14" d="M297.573 70.921C281.174 67.746 268.535 82.735 268.535 82.735L246.161 59.933C248.574 58.648 251.311 57.927 254.235 57.927H254.35C257.411 57.948 260.283 58.763 262.759 60.183C264.827 61.363 266.634 62.961 268.055 64.873C268.337 65.239 268.598 65.625 268.849 66.022C272.045 62.46 276.673 60.308 281.645 60.308C282.596 60.308 283.567 60.381 284.538 60.548C287.567 61.06 290.283 62.334 292.508 64.131C294.732 65.938 296.476 68.279 297.573 70.921Z" fill="#DBCC9E"/>
</g>
<defs>
<clipPath id="clip0">
<rect width="512" height="512" fill="white"/>
</clipPath>
</defs>
</svg>
