<svg id="Capa_1" enable-background="new 0 0 512 512" height="512" viewBox="0 0 512 512" width="512" xmlns="http://www.w3.org/2000/svg"><g><path d="m395.173 53.009-18.275-41.12c-3.214-7.229-10.384-11.889-18.296-11.889-1.196 0-2.367.105-3.506.306l-7.596 19.715v120.366l24.113 24.774 25.062-68.919c5.113-14.062 4.575-29.559-1.502-43.233z" fill="#ffe09f"/><path d="m355.097.31c-9.379 1.663-16.516 9.855-16.516 19.711v120.366l16.516 12.387z" fill="#f6d190"/><path d="m402.052 57.56-8.28-7.684c-3.699.943-6.687 3.847-7.646 7.684l-11.948 47.792c-1.303 5.212 2.639 10.261 8.011 10.261h7.441l24.37-10.261z" fill="#e5646e"/><path d="m396.674 96.241c5.113-14.062 4.575-29.559-1.502-43.232l-1.4-3.133c.834-.211 1.724-.327 2.615-.327 4.853 0 9.084 3.303 10.261 8.012l11.948 47.792c1.303 5.212-2.639 10.261-8.012 10.261h-20.954z" fill="#ff8086"/><path d="m158.897.765c-1.747-.498-3.592-.765-5.499-.765l-11.016 11.89-18.275 41.12c-6.077 13.673-6.615 29.17-1.502 43.232l25.062 68.919 25.753-24.774v-120.366c-.001-9.15-6.139-16.867-14.523-19.256z" fill="#ffe09f"/><path d="m130.847 90.597c-3.677-10.093-3.29-21.06 1-30.718l27.05-59.115c-1.747-.497-3.592-.764-5.499-.764-7.912 0-15.082 4.659-18.295 11.89l-18.275 41.119c-6.077 13.673-6.615 29.17-1.502 43.232l25.061 68.92 13.81-10.358z" fill="#f6d190"/><path d="m392.129 453.935-20.516-41.032 13.296-4.432c5.517-1.839 7.456-8.653 3.733-13.121l-16.363-19.634-215.375-20.619 1.769 156.903h223.129c6.419 0 10.384-7.002 7.081-12.507l-17.27-28.784 15.741-5.247c4.768-1.588 7.022-7.032 4.775-11.527z" fill="#f6d190"/><path d="m355.097 355.097h-198.194l-33.545 40.254c-3.723 4.468-1.785 11.282 3.733 13.121l13.296 4.432-20.516 41.032c-2.247 4.495.007 9.938 4.775 11.527l15.741 5.247-17.27 28.783c-3.303 5.504.662 12.507 7.081 12.507h28.475l17.574-82.013c1.984-9.261 11.329-14.97 20.449-12.416 6.201 1.736 12.645 2.882 19.282 3.347 9.364 9.464 21.325 15.244 34.398 16.491 1.889.18 3.763.268 5.615.268 15.521 0 29.978-6.043 40.749-16.815 31.673-2.458 59.19-19.872 75.539-45.147z" fill="#e8b57d"/><path d="m289.032 404.645h-48.952c-45.608 0-82.581-36.973-82.581-82.581v-123.87h214.113v123.871c.001 45.608-36.972 82.58-82.58 82.58z" fill="#ffe09f"/><path d="m222.968 404.645h33.032v-16.516h-33.032c-18.243 0-33.032-14.789-33.032-33.032v-115.613h-49.548v82.581c-.001 45.607 36.972 82.58 82.58 82.58z" fill="#f6d190"/><path d="m305.548 123.871h-99.097c-14.868 0-28.902 3.572-41.29 9.905l-17.661 63.724 199.339 17.209v24.774h24.774c13.682 0 24.774-11.092 24.774-24.774 0-50.168-40.67-90.838-90.839-90.838z" fill="#f6d190"/><path d="m330.323 198.194h-140.388c-13.682 0-24.774-11.092-24.774-24.774v-39.643c-29.506 15.102-49.706 45.889-49.547 81.349.061 13.507 11.266 24.358 24.773 24.359h24.774v-24.775h181.677c.001-9.122-7.394-16.516-16.515-16.516z" fill="#e8b57d"/><circle cx="346.839" cy="239.484" fill="#5d5360" r="24.774"/><circle cx="165.161" cy="239.484" fill="#5d5360" r="24.774"/><path d="m137.822 105.352-11.948-47.792c-.96-3.841-3.953-6.748-7.658-7.688l-8.268 7.688-11.948 47.792 24.369 10.261h7.441c5.373 0 9.315-5.049 8.012-10.261z" fill="#ff8086"/><path d="m256 408.667c-22.804 0-41.29-11-41.29-41.183v-61.936c0-22.804 18.486-41.29 41.29-41.29 22.804 0 41.29 18.486 41.29 41.29v61.936c0 36.349-18.486 41.183-41.29 41.183z" fill="#fff5d7"/><circle cx="173.419" cy="231.226" fill="#fff" r="8.258"/><circle cx="355.097" cy="231.226" fill="#fff" r="8.258"/><path d="m276.645 388.129c-.052 0-.104 0-.156-.001-6.904-.053-12.231-6.206-12.231-13.11v-52.954h-16.516v52.954c0 6.904-5.327 13.057-12.231 13.11-.052 0-.104.001-.156.001-11.402 0-20.645-9.243-20.645-20.645v10.613c0 21.565 15.766 40.824 37.234 42.871 24.627 2.349 45.346-16.954 45.346-41.096v-12.387c0 11.401-9.243 20.644-20.645 20.644z" fill="#f6d190"/><path d="m256 330.323c-2.113 0-4.226-.806-5.839-2.419l-16.516-16.516c-3.226-3.226-3.226-8.452 0-11.677 3.226-3.226 8.452-3.226 11.677 0l10.678 10.676 10.677-10.677c3.226-3.226 8.452-3.226 11.677 0 3.226 3.226 3.226 8.452 0 11.677l-16.516 16.516c-1.612 1.613-3.725 2.42-5.838 2.42z" fill="#b57f5f"/><path d="m115.326 96.241c-5.113-14.062-4.575-29.559 1.502-43.232l1.388-3.136c-.834-.211-1.712-.324-2.603-.324-4.853 0-9.084 3.303-10.261 8.012l-11.948 47.792c-1.303 5.212 2.639 10.261 8.012 10.261h20.954z" fill="#e5646e"/></g></svg>